<svg width="191" height="25" fill="none" xmlns="http://www.w3.org/2000/svg"><path d="M13.33 6.792l-2.77 2.794-2.771-2.794c-1.53-1.542-1.53-4.046 0-5.636a3.899 3.899 0 015.541 0c1.53 1.59 1.53 4.094 0 5.636z" fill="#5FAF2D"/><path d="M7.789 14.691l2.77-2.793 2.771 2.793c1.53 1.542 1.53 4.047 0 5.636a3.899 3.899 0 01-5.541 0c-1.53-1.59-1.53-4.094 0-5.636z" fill="#005A28"/><path d="M14.476 13.584l-2.771-2.842 2.77-2.794a3.899 3.899 0 015.542 0c1.529 1.542 1.529 4.046 0 5.636a3.899 3.899 0 01-5.541 0z" fill="#1EAF37"/><path d="M6.688 7.948l2.771 2.794-2.77 2.794a3.899 3.899 0 01-5.542 0c-1.53-1.542-1.53-4.046 0-5.636 1.48-1.493 4.013-1.493 5.541.048z" fill="#AAE641"/><path d="M161.905 9.875h-4.061v9.875H154.5V9.875h-4.061V6.599h11.466v3.276zm-114.084 4.72h9.746a6.59 6.59 0 00.144-1.397c0-3.853-2.724-6.936-6.545-6.936-4.061 0-6.832 3.035-6.832 6.936 0 3.902 2.723 6.937 7.07 6.937 2.485 0 4.443-1.012 5.638-2.794l-2.676-1.59c-.573.771-1.624 1.301-2.914 1.301-1.72 0-3.153-.723-3.63-2.457zm-.047-2.649c.382-1.686 1.624-2.65 3.392-2.65 1.385 0 2.818.771 3.2 2.65h-6.593zm19.778-5.684c-1.863 0-3.249.723-4.204 1.927V6.647h-3.344V25h3.344v-6.792c.955 1.204 2.293 1.927 4.204 1.927 3.487 0 6.306-3.035 6.306-6.937.048-3.901-2.819-6.936-6.306-6.936zm-.621 10.597c-2.055 0-3.583-1.493-3.583-3.709s1.528-3.709 3.583-3.709c2.054 0 3.583 1.493 3.583 3.71 0 2.215-1.481 3.708-3.583 3.708zm12.134-2.264h9.746a6.59 6.59 0 00.143-1.397c0-3.853-2.723-6.936-6.544-6.936-4.061 0-6.832 3.035-6.832 6.936 0 3.902 2.723 6.937 7.07 6.937 2.485 0 4.443-1.012 5.638-2.794l-2.676-1.59c-.573.771-1.624 1.301-2.914 1.301-1.72 0-3.153-.723-3.63-2.457zm-.047-2.649c.382-1.686 1.624-2.65 3.391-2.65 1.386 0 2.82.771 3.201 2.65h-6.592zm34.349-5.684c-1.911 0-3.249.723-4.204 1.927V6.647h-3.344V25h3.344v-6.792c.955 1.204 2.293 1.927 4.204 1.927 3.487 0 6.306-3.035 6.306-6.937 0-3.901-2.866-6.936-6.306-6.936zm-.621 10.597c-2.054 0-3.583-1.493-3.583-3.709s1.529-3.709 3.583-3.709c2.054 0 3.583 1.493 3.583 3.71 0 2.215-1.529 3.708-3.583 3.708zm12.134-2.264h9.746c.096-.433.144-.915.144-1.397 0-3.853-2.723-6.936-6.545-6.936-4.061 0-6.832 3.035-6.832 6.936 0 3.902 2.723 6.937 7.071 6.937 2.484 0 4.442-1.012 5.637-2.794l-2.676-1.59c-.573.771-1.624 1.301-2.914 1.301-1.767 0-3.201-.723-3.631-2.457zm.717-9.345c.956 0 1.72-.77 1.72-1.734 0-.963-.764-1.782-1.72-1.782-.955 0-1.768.819-1.768 1.782 0 .964.813 1.734 1.768 1.734zm-.812 6.696c.382-1.686 1.624-2.65 3.392-2.65 1.385 0 2.819.771 3.201 2.65h-6.593zm5.685-6.696c.955 0 1.72-.77 1.72-1.734 0-.963-.765-1.782-1.72-1.782s-1.768.819-1.768 1.782c.048.964.813 1.734 1.768 1.734zm12.66 14.837c2.532 0 4.73-1.35 5.828-3.42l-2.914-1.686c-.525 1.06-1.624 1.734-2.962 1.734-2.006 0-3.487-1.493-3.487-3.565 0-2.071 1.481-3.564 3.487-3.564 1.338 0 2.437.674 2.962 1.734l2.867-1.686c-1.051-2.023-3.249-3.372-5.781-3.372-3.917 0-6.832 3.035-6.832 6.936 0 3.902 2.915 6.889 6.832 6.889zm26.706 0c3.822 0 6.831-3.035 6.831-6.937 0-3.901-3.009-6.888-6.831-6.888-3.822 0-6.832 3.035-6.832 6.936 0 3.902 3.01 6.889 6.832 6.889zm0-3.276c-1.959 0-3.488-1.493-3.488-3.613 0-2.119 1.529-3.612 3.488-3.612 2.006 0 3.535 1.493 3.535 3.612 0 2.12-1.529 3.613-3.535 3.613zM99.751 19.75h3.87l-4.968-6.648 4.777-6.455h-3.965l-3.679 5.299H94.64V6.647h-3.344V19.75h3.344v-5.155h1.385l3.726 5.155zm87.379 0h3.869l-4.92-6.648 4.777-6.455h-3.965l-3.726 5.347h-1.147V6.647h-3.344V19.75h3.344v-5.155h1.385l3.727 5.155zM42.136 1.686h-13.52V19.7H32.2V5.106h6.402V19.75h3.583V1.686h-.048z" fill="#005A28"/></svg>